<?xml version="1.0" encoding="UTF-8"?>
<svg width="155px" height="68px" viewBox="0 0 155 68" version="1.1" xmlns="http://www.w3.org/2000/svg" xmlns:xlink="http://www.w3.org/1999/xlink">
    <!-- Generator: Sketch 51.2 (57519) - http://www.bohemiancoding.com/sketch -->
    <title>colored logo</title>
    <desc>Created with Sketch.</desc>
    <defs></defs>
    <g id="Symbols" stroke="none" stroke-width="1" fill="none" fill-rule="evenodd">
        <g id="bridge-logo" fill-rule="nonzero">
            <g id="colored-logo">
                <g id="Group">
                    <g id="Vector" transform="translate(0.000000, 0.186682)" fill="#2FA1D4">
                        <g id="path6_fill-link" transform="translate(0.057206, 0.000000)">
                            <path d="M16.340112,56.5187841 C16.340112,58.1920111 17.2901512,59.1216855 19.0001529,59.1216855 L27.9302574,59.1216855 L27.9302574,67.1161378 L19.0001529,67.1161378 C11.9701076,67.1161378 7.03006439,62.6540745 7.03006439,55.7752313 L7.03006439,39.9722616 C7.03006439,38.2988478 6.08002528,37.3693602 4.37002353,37.3693602 L1.15967622e-05,37.3693602 L1.15967622e-05,29.1889731 L4.56004279,29.1889731 C6.27004454,29.1889731 7.22004552,28.2594853 7.22004552,26.5860717 L7.22004552,11.3409438 C7.22004552,4.27609111 12.1600887,2.83686942e-06 19.1901341,2.83686942e-06 L27.9302574,2.83686942e-06 L27.9302574,7.99443364 L19.0001529,7.99443364 C17.2901512,7.99443364 16.340112,8.92401461 16.340112,10.597279 L16.340112,25.6565839 C16.340112,29.5608427 14.440091,31.6059395 11.9700885,33.0932317 C14.440091,34.5805239 16.340112,36.6256207 16.340112,40.5298795 L16.340112,56.5187841 Z" id="path6_fill"></path>
                        </g>
                    </g>
                    <g id="Vector" transform="translate(126.209407, 0.000000)" fill="#4E57CA">
                        <g id="path7_fill-link" transform="translate(0.006097, 0.000000)">
                            <path d="M11.5901072,40.5298795 C11.5901072,36.6256207 13.4900901,34.5805239 15.9601117,33.0932317 C13.4900901,31.6059395 11.5901072,29.5608427 11.5901072,25.6565839 L11.5901072,10.4113628 C11.5901072,8.73811708 10.6400681,7.80851745 8.93006633,7.80851745 L0,7.80851745 L0,5.67373882e-06 L8.74008521,5.67373882e-06 C15.7701305,5.67373882e-06 20.7100974,4.4620073 20.7100974,11.3409438 L20.7100974,26.2143886 C20.7100974,27.8876157 21.6600984,28.8171032 23.3701765,28.8171032 L27.9302574,28.8171032 L27.9302574,37.1834254 L23.3701765,37.1834254 C21.6600984,37.1834254 20.7100974,38.1130995 20.7100974,39.7863268 L20.7100974,55.5892965 C20.7100974,62.6540745 15.7701305,66.9302029 8.74008521,66.9302029 L0,66.9302029 L0,58.9357506 L8.93006633,58.9357506 C10.6400681,58.9357506 11.5901072,58.0060763 11.5901072,56.3328492 L11.5901072,40.5298795 Z" id="path7_fill"></path>
                        </g>
                    </g>
                    <g id="Vector" transform="translate(35.086347, 0.000000)" fill="#EB2C97">
                        <g id="path8_fill-link" transform="translate(0.114412, 0.000000)">
                            <polygon id="path8_fill" points="41.990348 0 0 0 0 7.80851745 41.990348 7.80851745 83.7905814 7.80851745 83.7905814 0"></polygon>
                        </g>
                    </g>
                    <g id="Vector" transform="translate(34.895660, 19.788248)" fill="#08C39D">
                        <g id="path9_fill-link" transform="translate(0.114412, 0.104542)">
                            <path d="M71.4405687,39.2285221 L71.4405687,28.0735505 C71.4405687,12.2705248 58.7105177,0 42.3703865,0 L41.990348,0 L41.6103094,0 C25.2701784,0 12.5401082,12.2705248 12.5401082,28.0735505 L12.5401082,39.2285221 L0,39.2285221 L0,47.2229744 L20.5201736,47.2229744 L20.5201736,28.2594853 C20.5201736,16.9184482 29.8302593,7.99445231 41.6103094,7.99445231 L41.990348,7.99445231 L42.3703865,7.99445231 C54.1504368,7.99445231 63.4605225,16.9184482 63.4605225,28.2594853 L63.4605225,47.2229744 L83.9806959,47.2229744 L83.9806959,39.2285221 L71.4405687,39.2285221 Z" id="path9_fill"></path>
                        </g>
                    </g>
                </g>
            </g>
        </g>
    </g>
</svg>